<svg xmlns="http://www.w3.org/2000/svg" xmlns:xlink="http://www.w3.org/1999/xlink" width="1552" height="100" viewBox="0 0 1552 100"><defs><style>.a,.d,.i{fill:#fff;}.b{clip-path:url(#a);}.c{fill:#ed4041;}.d,.f,.j{font-size:20px;font-family:Poppins-Regular, Poppins;}.e,.k,.m{fill:none;}.e{stroke:#545454;}.f{fill:#545454;}.g{opacity:0;}.h{fill:#030504;}.i{font-size:12px;font-family:Poppins-Medium, Poppins;font-weight:500;letter-spacing:0.1em;}.j{fill:#707070;}.k{stroke:#707070;stroke-linecap:round;stroke-width:2px;}.l{stroke:none;}.n{filter:url(#d);}.o{filter:url(#b);}</style><clipPath id="a"><rect class="a" width="1552" height="100" transform="translate(0 1083)"/></clipPath><filter id="b" x="1321.5" y="-93.5" width="245" height="95" filterUnits="userSpaceOnUse"><feOffset dx="2" dy="2" input="SourceAlpha"/><feGaussianBlur stdDeviation="7.5" result="c"/><feFlood flood-color="#ed4041" flood-opacity="0.478"/><feComposite operator="in" in2="c"/><feComposite in="SourceGraphic"/></filter><filter id="d" x="1191.5" y="-93.5" width="149" height="95" filterUnits="userSpaceOnUse"><feOffset dx="2" dy="2" input="SourceAlpha"/><feGaussianBlur stdDeviation="7.5" result="e"/><feFlood flood-color="#ed4041" flood-opacity="0.478"/><feComposite operator="in" in2="e"/><feComposite in="SourceGraphic"/></filter></defs><g class="b" transform="translate(0 -1083)"><g transform="translate(0 -98)"><g transform="translate(-236 1083)"><g transform="translate(1578 25)"><g class="o" transform="matrix(1, 0, 0, 1, -1342, 73)"><rect class="c" width="200" height="50" rx="5" transform="translate(1342 -73)"/></g><g transform="translate(-141.207 -724)"><text class="d" transform="translate(203 756)"><tspan x="0" y="0">Get Started</tspan></text><path class="a" d="M6.976,17.576l.813.813a.876.876,0,0,0,1.242,0l7.123-7.119a.876.876,0,0,0,0-1.242L9.032,2.906a.876.876,0,0,0-1.242,0l-.813.813a.88.88,0,0,0,.015,1.257l4.415,4.206H-7.124A.877.877,0,0,0-8,10.061v1.172a.877.877,0,0,0,.879.879h18.53L6.991,16.319A.874.874,0,0,0,6.976,17.576Z" transform="translate(173.42 738.353)"/></g></g><g transform="translate(1448 25)"><g class="n" transform="matrix(1, 0, 0, 1, -1212, 73)"><g class="e" transform="translate(1212 -73)"><rect class="l" width="104" height="50" rx="5"/><rect class="m" x="0.5" y="0.5" width="103" height="49" rx="4.5"/></g></g><text class="f" transform="translate(22.793 32)"><tspan x="0" y="0">Log in</tspan></text></g></g><g transform="translate(720 1104.772)"><g class="g"><g transform="translate(-470.389)"><path class="c" d="M4389.486-1149.658H4374.05l9.437,6.982,9.438-6.982h-4.381" transform="translate(-4374.05 1149.658)"/></g><g transform="translate(-483 0.064)"><path class="h" d="M4391.109-1148.809l-2.116,1.566-10.866,8.041-10.867-8.041-2.116-1.566H4356.6v39.289l21.523,15.926,21.522-15.926v-39.289Zm-12.982,11.553,5.7-4.217h4.245l3.822,2.828v7.67l-4.1,5.268,0,7.2-3.67,4.069-5.212-2.109v-1.96l5.394-4.236-1.014-9.662h.051l6.074-1.565h-7.863l1.012,9.648-4.436,2.629-4.437-2.629,1.012-9.648h-7.863l6.151,1.565h-.026l-1.014,9.662,5.4,4.236v1.96l-5.213,2.109-3.671-4.069,0-7.2-4.1-5.268v-7.67l3.822-2.828h4.245Zm-19.958-9.988h6.458l.2.145-6.654,4.932Zm0,7.028,7.973-5.907,4.168,3.084h-2.644l-9.5,7.027Zm0,6.151,4.625-3.421v4.2l-4.625,3.422Zm0,6.152,4.625-3.422v.9l1.637,2.094-6.262,4.634Zm0,6.152,7.227-5.347,1.5,1.922v1.169l-8.729,6.459Zm0,6.151,8.729-6.459v4.2l-8.729,6.459Zm.574,5.727,9.212-6.818,2.286,2.514-8.657,6.406Zm8.71,6.445-4.553-3.369,4.553-3.37Zm4.946,3.658-3.38-2.5v-9.056l2.28-1.687,1.1.833Zm4.945,3.659-3.38-2.5V-1111l3.38,2.56Zm4.944-2.5-3.379,2.5v-12.324l3.379-2.56Zm-4.162-11.392-4.7-3.264,4.7-1.9,4.7,1.9Zm9.106,7.733-3.379,2.5v-12.41l1.1-.833,2.28,1.687Zm1.566-1.158v-6.739l4.553,3.37Zm5.87-4.343-8.658-6.406,2.287-2.514,9.212,6.818Zm3.414-3.625-8.729-6.459v-4.2l8.729,6.459Zm0-6.151-8.729-6.459v-1.169l1.5-1.922,7.227,5.347Zm0-6.152-6.261-4.634,1.637-2.094v-.9l4.624,3.422Zm0-6.152-4.624-3.422v-4.2l4.624,3.421Zm0-6.151-9.5-7.027h-2.644l4.168-3.084,7.973,5.907Zm0-6.155-6.654-4.932.2-.145h6.458Z" transform="translate(-4356.079 1149.333)"/><path class="h" d="M4377.894-1093.174l-22.047-16.314v-40.078h9.238l12.81,9.478,12.809-9.478h9.239v40.078Zm-21-16.843,21,15.537,21-15.537v-38.5h-7.843l-13.156,9.735-13.156-9.735H4356.9Zm21.256,14.705v-13.627l4.43-3.355v13.7Zm1.05-13.1v11.021l2.329-1.723v-11.063Zm-1.565,13.1-4.43-3.278v-13.7l4.43,3.355Zm-3.379-3.807,2.329,1.723v-11.021l-2.329-1.765Zm8.839.147v-13.713l1.619-1.228,2.81,2.078v9.585Zm1.05-13.191v11.108l2.33-1.724v-8.526l-1.75-1.3Zm-11.454,13.191-4.43-3.277v-9.585l2.81-2.078,1.62,1.228Zm-3.379-3.807,2.329,1.724v-11.108l-.578-.438-1.751,1.3Zm18.729.147v-8.821l5.962,4.411Zm1.05-6.739v4.657l3.146-2.328Zm-21.344,6.739-5.962-4.41,5.962-4.411Zm-4.2-4.41,3.146,2.328v-4.657Zm30.887-.321-9.437-6.982,3-3.294,10.164,7.522Zm-7.879-7.135,7.879,5.829,1.958-1.449-8.262-6.113Zm-25.206,7.135-3.725-2.755,10.165-7.522,3,3.294Zm-1.959-2.755,1.959,1.449,7.877-5.829-1.574-1.733Zm18.5.509-5.8-4.026,5.8-2.346,5.8,2.346Zm-3.6-3.78,3.6,2.5,3.6-2.5-3.6-1.459Zm-16.878,2.79v-5.51l9.778-7.235v5.51Zm1.05-4.982v2.9l7.679-5.682v-2.9Zm39.916,4.982-9.78-7.236v-5.51l9.78,7.235Zm-8.73-7.765,7.679,5.683v-2.9l-7.679-5.682Zm-5.615,4.312-5.881-2.38V-1119l5.366-4.215-1.044-9.953h.583l1.995-.516H4381.9l.985,9.4-4.994,2.959-4.993-2.959.821-7.837h-.519l-.933,8.9,5.366,4.215v2.569l-5.88,2.38-4.052-4.491,0-7.219-4.1-5.268v-3.4l-.516-.131v1.311l-5.675,4.2v-5.51l5.675-4.2v4.029h.516v-4.411l4.175-3.088h4.591l5.526,4.089,5.528-4.089h4.59l4.174,3.088v4.411h.516v-4.028l5.677,4.2v5.509l-5.677-4.2v-1.321l-.516.133v3.411l-4.1,5.268,0,7.218Zm-4.831-3.087,4.544,1.838,3.289-3.645,0-7.177,3.661-4.7a2.1,2.1,0,0,0,.443-1.291v-2.059l-7.507,1.936.875,8.345a2.08,2.08,0,0,1-.783,1.851l-4.519,3.549Zm-10.449-1.808,3.29,3.646,4.543-1.838v-1.351l-4.518-3.549a2.077,2.077,0,0,1-.784-1.851l.877-8.364-7.51-1.911v2.053a2.106,2.106,0,0,0,.443,1.291l3.66,4.7Zm5.261-5.894,3.88,2.3,3.88-2.3-.917-8.734a1.05,1.05,0,0,1,1.044-1.16h9.233v-2.823a2.1,2.1,0,0,0-.851-1.688l-2.063-1.526a2.1,2.1,0,0,0-1.249-.412h-2.513a2.1,2.1,0,0,0-1.249.412l-5.317,3.933-5.875-4.346h-3.2a2.1,2.1,0,0,0-1.248.412l-2.063,1.526a2.1,2.1,0,0,0-.852,1.688v2.823h9.235a1.05,1.05,0,0,1,1.044,1.16l-.1.918-.057.538Zm19.737-8.941,3.575,2.645v-2.9l-3.575-2.646Zm-35.29-.252v2.9l3.574-2.645v-2.9Zm12.334.35,3.01.766.081-.766Zm-13.384,16.933v-5.51l7.851-5.808,1.928,2.468v1.615Zm1.05-4.981v2.9l7.679-5.682v-.724l-1.075-1.378Zm39.916,4.981-9.78-7.236v-1.615l1.929-2.468,7.851,5.808Zm-8.73-7.765,7.679,5.683v-2.9l-6.6-4.885-1.076,1.378Zm8.73,1.614-7.533-5.574,1.856-2.377v-1.759l5.677,4.2Zm-6.043-5.777,4.992,3.693v-2.9l-3.575-2.646v.039Zm-34.923,5.777v-5.511l5.675-4.2v1.759l1.858,2.377Zm1.05-4.982v2.9l4.992-3.693-1.417-1.85Zm39.916-7.322-10.2-7.543h-4.063l5.761-4.262,8.5,6.3ZM4387.3-1143.8h1.225l8.8,6.511v-2.9l-7.448-5.519Zm-29.891,8.594v-5.51l8.5-6.3,5.761,4.262h-4.062Zm1.05-4.981v2.9l8.8-6.511h1.225l-2.576-1.906Zm39.916-1.173-8.063-5.976.905-.668h7.158Zm-5.786-5.594,4.734,3.509v-3.509Zm-35.181,5.594V-1148h7.157l.9.668Zm1.05-5.594v3.509l4.735-3.509Z" transform="translate(-4355.846 1149.566)"/></g></g><path class="h" d="M4442.868-1115.458h9.775V-1111h-15.592v-29.122h5.817Z" transform="translate(-4863.797 1146.729)"/><path class="h" d="M4483.555-1118.662h-16.747a6.3,6.3,0,0,0,1.65,4.5,5.305,5.305,0,0,0,3.795,1.444,5.51,5.51,0,0,0,3.362-.99,4.387,4.387,0,0,0,1.712-2.682h6.146a9.832,9.832,0,0,1-1.938,4.29,10.13,10.13,0,0,1-3.816,2.97,12.228,12.228,0,0,1-5.177,1.072,12.162,12.162,0,0,1-5.94-1.423,10,10,0,0,1-4.042-4.063,12.773,12.773,0,0,1-1.443-6.229,12.9,12.9,0,0,1,1.443-6.25,9.839,9.839,0,0,1,4.042-4.063,12.313,12.313,0,0,1,5.94-1.4,12.044,12.044,0,0,1,5.919,1.4,9.887,9.887,0,0,1,3.919,3.857,11.192,11.192,0,0,1,1.382,5.589A11.045,11.045,0,0,1,4483.555-1118.662Zm-7.116-6.806a5.582,5.582,0,0,0-3.9-1.444,5.712,5.712,0,0,0-3.959,1.444,5.907,5.907,0,0,0-1.774,4.249h11.1A5.127,5.127,0,0,0,4476.439-1125.468Z" transform="translate(-4871.191 1144.076)"/><path class="h" d="M4514.032-1130.088a10.27,10.27,0,0,1,4.187,4.063,12.355,12.355,0,0,1,1.526,6.25,12.239,12.239,0,0,1-1.526,6.229,10.444,10.444,0,0,1-4.187,4.063,12.518,12.518,0,0,1-6,1.423,12.52,12.52,0,0,1-6-1.423,10.429,10.429,0,0,1-4.186-4.063,12.229,12.229,0,0,1-1.526-6.229,12.345,12.345,0,0,1,1.526-6.25,10.255,10.255,0,0,1,4.186-4.063,12.677,12.677,0,0,1,6-1.4A12.675,12.675,0,0,1,4514.032-1130.088Zm-10.126,5.342a6.785,6.785,0,0,0-1.692,4.971,6.782,6.782,0,0,0,1.692,4.971,5.577,5.577,0,0,0,4.125,1.712,5.581,5.581,0,0,0,4.125-1.712,6.781,6.781,0,0,0,1.691-4.971,6.784,6.784,0,0,0-1.691-4.971,5.584,5.584,0,0,0-4.125-1.712A5.581,5.581,0,0,0,4503.905-1124.746Z" transform="translate(-4882.006 1144.076)"/><path class="h" d="M4552.972-1115.042a7.991,7.991,0,0,1-3.3,3.011,11.444,11.444,0,0,1-5.321,1.134,13.814,13.814,0,0,1-5.528-1.052,9.338,9.338,0,0,1-3.9-3.032,8.743,8.743,0,0,1-1.671-4.619h6.188a4.722,4.722,0,0,0,1.423,2.949,4.465,4.465,0,0,0,3.238,1.176,3.771,3.771,0,0,0,2.784-.969,3.378,3.378,0,0,0,.97-2.5,3.275,3.275,0,0,0-.783-2.248,5.727,5.727,0,0,0-1.98-1.423q-1.2-.536-3.3-1.238a32.543,32.543,0,0,1-4.455-1.794,8.225,8.225,0,0,1-2.949-2.578,7.38,7.38,0,0,1-1.218-4.414,7.178,7.178,0,0,1,2.7-5.919,11.1,11.1,0,0,1,7.156-2.166,11.344,11.344,0,0,1,7.364,2.227,8.4,8.4,0,0,1,3.113,5.94h-6.27a4.362,4.362,0,0,0-1.319-2.578,4.1,4.1,0,0,0-2.929-1.011,3.864,3.864,0,0,0-2.6.845,3.05,3.05,0,0,0-.99,2.454,3.05,3.05,0,0,0,.763,2.125,5.824,5.824,0,0,0,1.938,1.382,31.706,31.706,0,0,0,3.2,1.2,42.414,42.414,0,0,1,4.557,1.856,8.038,8.038,0,0,1,2.991,2.6,7.637,7.637,0,0,1,1.236,4.537A7.89,7.89,0,0,1,4552.972-1115.042Z" transform="translate(-4893.33 1146.912)"/><path class="h" d="M4580.764-1130.3a7.583,7.583,0,0,1,2.929,3.2v-4.083h5.775v33.741h-5.775v-15.3a8.532,8.532,0,0,1-2.99,3.444,8.04,8.04,0,0,1-4.475,1.217,10.1,10.1,0,0,1-5.322-1.444,10.284,10.284,0,0,1-3.794-4.084,12.72,12.72,0,0,1-1.4-6.063,12.938,12.938,0,0,1,1.4-6.126,10.549,10.549,0,0,1,3.794-4.146,9.892,9.892,0,0,1,5.322-1.485A8.686,8.686,0,0,1,4580.764-1130.3Zm-7.445,5.692a6.764,6.764,0,0,0-1.712,4.93,6.471,6.471,0,0,0,1.712,4.846,5.923,5.923,0,0,0,4.311,1.671,6.2,6.2,0,0,0,3.012-.763,5.572,5.572,0,0,0,2.228-2.248,7.29,7.29,0,0,0,.824-3.588,7.29,7.29,0,0,0-.824-3.589,5.616,5.616,0,0,0-2.207-2.248,6.175,6.175,0,0,0-3.032-.763A5.776,5.776,0,0,0,4573.318-1124.6Z" transform="translate(-4903.329 1144.058)"/><path class="h" d="M4626.082-1131.073v22.852h-5.816v-4.621a7.285,7.285,0,0,1-2.99,3.61,8.891,8.891,0,0,1-4.806,1.3,8.09,8.09,0,0,1-6.311-2.6q-2.35-2.6-2.352-7.26v-13.282h5.775v12.622a5.964,5.964,0,0,0,1.4,4.229,4.934,4.934,0,0,0,3.8,1.505,5.179,5.179,0,0,0,4-1.608,6.567,6.567,0,0,0,1.485-4.62v-12.127Z" transform="translate(-4915.034 1143.948)"/><path class="h" d="M4654.923-1130.129a7.414,7.414,0,0,1,2.929,3.671v-4.743h5.775v22.852h-5.775v-4.785a7.52,7.52,0,0,1-2.929,3.692,8.685,8.685,0,0,1-4.95,1.381,9.812,9.812,0,0,1-5.2-1.4,9.474,9.474,0,0,1-3.609-4.063,14.086,14.086,0,0,1-1.3-6.249,14.087,14.087,0,0,1,1.3-6.25,9.475,9.475,0,0,1,3.609-4.063,9.815,9.815,0,0,1,5.2-1.4A8.782,8.782,0,0,1,4654.923-1130.129Zm-7.507,5.486a6.864,6.864,0,0,0-1.65,4.868,6.788,6.788,0,0,0,1.65,4.847,5.719,5.719,0,0,0,4.373,1.753,5.758,5.758,0,0,0,4.352-1.794,6.672,6.672,0,0,0,1.711-4.806,6.731,6.731,0,0,0-1.711-4.847,5.756,5.756,0,0,0-4.352-1.794A5.688,5.688,0,0,0,4647.417-1124.643Z" transform="translate(-4926.114 1144.076)"/><path class="h" d="M4693.348-1133.4a7.69,7.69,0,0,1,2.949,3.671v-12.416h5.775v30.525H4696.3v-4.786a7.8,7.8,0,0,1-2.949,3.692,8.587,8.587,0,0,1-4.929,1.381,9.814,9.814,0,0,1-5.2-1.4,9.467,9.467,0,0,1-3.609-4.063,14.1,14.1,0,0,1-1.3-6.249,14.1,14.1,0,0,1,1.3-6.25,9.471,9.471,0,0,1,3.609-4.063,9.82,9.82,0,0,1,5.2-1.4A8.684,8.684,0,0,1,4693.348-1133.4Zm-7.487,5.486a6.867,6.867,0,0,0-1.649,4.868,6.79,6.79,0,0,0,1.649,4.846,5.721,5.721,0,0,0,4.373,1.753,5.758,5.758,0,0,0,4.352-1.794,6.675,6.675,0,0,0,1.711-4.805,6.733,6.733,0,0,0-1.711-4.847,5.755,5.755,0,0,0-4.352-1.794A5.691,5.691,0,0,0,4685.861-1127.918Z" transform="translate(-4937.926 1147.351)"/><path class="c" d="M4722.611-1103.807h0a3.031,3.031,0,0,1-3.031,3.032h-.206a3.032,3.032,0,0,1-3.032-3.032h0a3.032,3.032,0,0,1,3.032-3.032h.206A3.031,3.031,0,0,1,4722.611-1103.807Z" transform="translate(-4949.611 1136.502)"/><rect class="c" width="48" height="17" rx="4" transform="translate(-232 4)"/><text class="i" transform="translate(-224 17)"><tspan x="0" y="0">BETA</tspan></text></g><g transform="translate(-71 1071)"><text class="j" transform="translate(1004 69)"><tspan x="0" y="0">Contact</tspan></text><text class="j" transform="translate(887 69)"><tspan x="0" y="0">Pricing</tspan></text><text class="j" transform="translate(751 69)"><tspan x="0" y="0">Features</tspan></text></g></g><g transform="translate(0 1083)"><line class="k" x2="60" transform="translate(142 64)"/><line class="k" x2="39" transform="translate(142 50)"/><line class="k" x2="60" transform="translate(142 36)"/></g><g transform="translate(720 1104.772)"><g transform="translate(-470.389)"><path class="c" d="M4389.486-1149.658H4374.05l9.437,6.982,9.438-6.982h-4.381" transform="translate(-4374.05 1149.658)"/></g><g transform="translate(-483 0.064)"><path class="h" d="M4391.109-1148.809l-2.116,1.566-10.866,8.041-10.867-8.041-2.116-1.566H4356.6v39.289l21.523,15.926,21.522-15.926v-39.289Zm-12.982,11.553,5.7-4.217h4.245l3.822,2.828v7.67l-4.1,5.268,0,7.2-3.67,4.069-5.212-2.109v-1.96l5.394-4.236-1.014-9.662h.051l6.074-1.565h-7.863l1.012,9.648-4.436,2.629-4.437-2.629,1.012-9.648h-7.863l6.151,1.565h-.026l-1.014,9.662,5.4,4.236v1.96l-5.213,2.109-3.671-4.069,0-7.2-4.1-5.268v-7.67l3.822-2.828h4.245Zm-19.958-9.988h6.458l.2.145-6.654,4.932Zm0,7.028,7.973-5.907,4.168,3.084h-2.644l-9.5,7.027Zm0,6.151,4.625-3.421v4.2l-4.625,3.422Zm0,6.152,4.625-3.422v.9l1.637,2.094-6.262,4.634Zm0,6.152,7.227-5.347,1.5,1.922v1.169l-8.729,6.459Zm0,6.151,8.729-6.459v4.2l-8.729,6.459Zm.574,5.727,9.212-6.818,2.286,2.514-8.657,6.406Zm8.71,6.445-4.553-3.369,4.553-3.37Zm4.946,3.658-3.38-2.5v-9.056l2.28-1.687,1.1.833Zm4.945,3.659-3.38-2.5V-1111l3.38,2.56Zm4.944-2.5-3.379,2.5v-12.324l3.379-2.56Zm-4.162-11.392-4.7-3.264,4.7-1.9,4.7,1.9Zm9.106,7.733-3.379,2.5v-12.41l1.1-.833,2.28,1.687Zm1.566-1.158v-6.739l4.553,3.37Zm5.87-4.343-8.658-6.406,2.287-2.514,9.212,6.818Zm3.414-3.625-8.729-6.459v-4.2l8.729,6.459Zm0-6.151-8.729-6.459v-1.169l1.5-1.922,7.227,5.347Zm0-6.152-6.261-4.634,1.637-2.094v-.9l4.624,3.422Zm0-6.152-4.624-3.422v-4.2l4.624,3.421Zm0-6.151-9.5-7.027h-2.644l4.168-3.084,7.973,5.907Zm0-6.155-6.654-4.932.2-.145h6.458Z" transform="translate(-4356.079 1149.333)"/><path class="h" d="M4377.894-1093.174l-22.047-16.314v-40.078h9.238l12.81,9.478,12.809-9.478h9.239v40.078Zm-21-16.843,21,15.537,21-15.537v-38.5h-7.843l-13.156,9.735-13.156-9.735H4356.9Zm21.256,14.705v-13.627l4.43-3.355v13.7Zm1.05-13.1v11.021l2.329-1.723v-11.063Zm-1.565,13.1-4.43-3.278v-13.7l4.43,3.355Zm-3.379-3.807,2.329,1.723v-11.021l-2.329-1.765Zm8.839.147v-13.713l1.619-1.228,2.81,2.078v9.585Zm1.05-13.191v11.108l2.33-1.724v-8.526l-1.75-1.3Zm-11.454,13.191-4.43-3.277v-9.585l2.81-2.078,1.62,1.228Zm-3.379-3.807,2.329,1.724v-11.108l-.578-.438-1.751,1.3Zm18.729.147v-8.821l5.962,4.411Zm1.05-6.739v4.657l3.146-2.328Zm-21.344,6.739-5.962-4.41,5.962-4.411Zm-4.2-4.41,3.146,2.328v-4.657Zm30.887-.321-9.437-6.982,3-3.294,10.164,7.522Zm-7.879-7.135,7.879,5.829,1.958-1.449-8.262-6.113Zm-25.206,7.135-3.725-2.755,10.165-7.522,3,3.294Zm-1.959-2.755,1.959,1.449,7.877-5.829-1.574-1.733Zm18.5.509-5.8-4.026,5.8-2.346,5.8,2.346Zm-3.6-3.78,3.6,2.5,3.6-2.5-3.6-1.459Zm-16.878,2.79v-5.51l9.778-7.235v5.51Zm1.05-4.982v2.9l7.679-5.682v-2.9Zm39.916,4.982-9.78-7.236v-5.51l9.78,7.235Zm-8.73-7.765,7.679,5.683v-2.9l-7.679-5.682Zm-5.615,4.312-5.881-2.38V-1119l5.366-4.215-1.044-9.953h.583l1.995-.516H4381.9l.985,9.4-4.994,2.959-4.993-2.959.821-7.837h-.519l-.933,8.9,5.366,4.215v2.569l-5.88,2.38-4.052-4.491,0-7.219-4.1-5.268v-3.4l-.516-.131v1.311l-5.675,4.2v-5.51l5.675-4.2v4.029h.516v-4.411l4.175-3.088h4.591l5.526,4.089,5.528-4.089h4.59l4.174,3.088v4.411h.516v-4.028l5.677,4.2v5.509l-5.677-4.2v-1.321l-.516.133v3.411l-4.1,5.268,0,7.218Zm-4.831-3.087,4.544,1.838,3.289-3.645,0-7.177,3.661-4.7a2.1,2.1,0,0,0,.443-1.291v-2.059l-7.507,1.936.875,8.345a2.08,2.08,0,0,1-.783,1.851l-4.519,3.549Zm-10.449-1.808,3.29,3.646,4.543-1.838v-1.351l-4.518-3.549a2.077,2.077,0,0,1-.784-1.851l.877-8.364-7.51-1.911v2.053a2.106,2.106,0,0,0,.443,1.291l3.66,4.7Zm5.261-5.894,3.88,2.3,3.88-2.3-.917-8.734a1.05,1.05,0,0,1,1.044-1.16h9.233v-2.823a2.1,2.1,0,0,0-.851-1.688l-2.063-1.526a2.1,2.1,0,0,0-1.249-.412h-2.513a2.1,2.1,0,0,0-1.249.412l-5.317,3.933-5.875-4.346h-3.2a2.1,2.1,0,0,0-1.248.412l-2.063,1.526a2.1,2.1,0,0,0-.852,1.688v2.823h9.235a1.05,1.05,0,0,1,1.044,1.16l-.1.918-.057.538Zm19.737-8.941,3.575,2.645v-2.9l-3.575-2.646Zm-35.29-.252v2.9l3.574-2.645v-2.9Zm12.334.35,3.01.766.081-.766Zm-13.384,16.933v-5.51l7.851-5.808,1.928,2.468v1.615Zm1.05-4.981v2.9l7.679-5.682v-.724l-1.075-1.378Zm39.916,4.981-9.78-7.236v-1.615l1.929-2.468,7.851,5.808Zm-8.73-7.765,7.679,5.683v-2.9l-6.6-4.885-1.076,1.378Zm8.73,1.614-7.533-5.574,1.856-2.377v-1.759l5.677,4.2Zm-6.043-5.777,4.992,3.693v-2.9l-3.575-2.646v.039Zm-34.923,5.777v-5.511l5.675-4.2v1.759l1.858,2.377Zm1.05-4.982v2.9l4.992-3.693-1.417-1.85Zm39.916-7.322-10.2-7.543h-4.063l5.761-4.262,8.5,6.3ZM4387.3-1143.8h1.225l8.8,6.511v-2.9l-7.448-5.519Zm-29.891,8.594v-5.51l8.5-6.3,5.761,4.262h-4.062Zm1.05-4.981v2.9l8.8-6.511h1.225l-2.576-1.906Zm39.916-1.173-8.063-5.976.905-.668h7.158Zm-5.786-5.594,4.734,3.509v-3.509Zm-35.181,5.594V-1148h7.157l.9.668Zm1.05-5.594v3.509l4.735-3.509Z" transform="translate(-4355.846 1149.566)"/></g></g></g></svg>